<?xml version="1.0" standalone="no"?>
<!DOCTYPE svg PUBLIC "-//W3C//DTD SVG 20010904//EN"
 "http://www.w3.org/TR/2001/REC-SVG-20010904/DTD/svg10.dtd">
<svg version="1.0" xmlns="http://www.w3.org/2000/svg"
 width="260.000000pt" height="260.000000pt" viewBox="0 0 260.000000 260.000000"
 preserveAspectRatio="xMidYMid meet">
<metadata>
Created by potrace 1.14, written by Peter Selinger 2001-2017
</metadata>
<g transform="translate(0.000000,260.000000) scale(0.100000,-0.100000)"
fill="#000000" stroke="none">
<path d="M752 2513 c-19 -9 -43 -30 -55 -47 -24 -35 -27 -36 -77 -14 -46 21
-106 28 -119 15 -6 -6 -11 -8 -11 -3 0 4 -13 -2 -29 -13 -25 -18 -69 -90 -78
-126 -11 -47 -63 -310 -68 -345 -4 -24 -8 -47 -10 -51 -2 -3 -7 -21 -10 -40
-9 -45 -13 -63 -15 -66 -3 -3 -2 -3 -14 -53 -5 -19 -13 -46 -19 -60 -5 -14
-11 -32 -12 -40 -1 -8 -7 -38 -14 -66 -15 -64 -20 -195 -9 -254 31 -159 32
-192 6 -252 -12 -29 -31 -62 -41 -73 -22 -23 -70 -115 -61 -115 4 0 1 -7 -6
-15 -7 -8 -9 -15 -5 -15 4 0 3 -6 -3 -12 -6 -8 -9 -56 -8 -113 2 -141 17 -168
178 -332 40 -40 78 -73 85 -73 7 0 13 -4 13 -8 0 -26 209 -64 244 -44 23 13
70 8 109 -10 23 -12 44 -24 47 -27 18 -24 198 -112 280 -137 49 -15 174 -20
220 -9 14 4 32 8 40 10 102 23 169 13 210 -30 22 -24 30 -25 129 -25 102 0
106 1 136 29 26 26 107 76 127 80 4 1 28 10 54 21 25 11 48 20 51 20 2 0 36
18 75 41 78 46 178 139 199 187 8 18 18 32 22 32 5 0 5 5 2 10 -3 6 -1 10 6
10 7 0 10 3 6 6 -3 3 1 24 9 46 13 36 28 148 24 173 -1 6 -3 62 -4 125 -4 134
-2 138 83 228 67 71 76 89 67 135 -9 43 -29 65 -106 117 -78 53 -96 73 -110
121 -6 20 -17 42 -25 49 -8 7 -15 17 -15 23 0 20 -71 76 -174 138 -56 33 -170
112 -254 174 -84 63 -166 120 -182 127 -17 7 -30 16 -30 20 0 5 -7 8 -15 8 -8
0 -15 5 -15 10 0 6 -6 10 -13 10 -8 0 -33 18 -58 41 -70 65 -148 89 -185 58
-8 -6 -14 -8 -14 -4 0 4 -7 2 -15 -5 -18 -15 -28 -8 -32 21 -2 11 -10 27 -18
35 -8 9 -15 20 -15 26 0 18 -300 308 -339 327 -46 23 -97 25 -139 4z m235
-203 c65 -63 130 -130 145 -150 15 -19 32 -41 38 -47 6 -7 8 -13 6 -13 -3 0 5
-19 17 -41 14 -24 36 -47 54 -54 28 -12 36 -11 79 10 55 26 72 22 131 -34 18
-17 37 -31 42 -31 6 0 11 -4 11 -10 0 -5 5 -10 10 -10 10 0 139 -77 150 -90 3
-3 31 -23 62 -44 32 -22 58 -42 58 -46 0 -3 15 -14 33 -25 17 -10 34 -21 37
-25 9 -11 123 -86 185 -121 103 -58 143 -97 167 -166 17 -47 76 -123 95 -123
6 0 18 -9 28 -20 10 -11 23 -20 28 -20 16 0 57 -41 57 -56 0 -8 -26 -39 -57
-71 -56 -56 -82 -93 -86 -123 -2 -8 -5 -19 -8 -25 -2 -5 -4 -46 -3 -90 6 -236
5 -250 -16 -314 -23 -68 -21 -65 -77 -130 -43 -49 -131 -112 -185 -132 -21 -7
-38 -17 -38 -23 0 -5 -3 -6 -7 -3 -3 4 -12 2 -20 -4 -7 -6 -13 -9 -13 -6 0 11
-134 -62 -168 -91 -28 -24 -41 -28 -91 -28 -45 1 -66 7 -98 28 -74 49 -140 55
-268 25 -141 -32 -252 -4 -445 112 -55 33 -100 58 -100 55 0 -2 -8 0 -19 5
-23 13 -90 21 -96 11 -2 -4 -21 -6 -42 -6 -21 1 -40 -2 -43 -5 -3 -4 -34 2
-70 14 -58 19 -75 31 -157 115 -51 51 -100 108 -109 125 -11 20 -18 63 -20
117 -4 96 17 164 73 236 16 21 36 55 43 74 7 19 16 40 19 45 11 17 5 137 -11
213 -20 95 -17 200 7 312 1 3 11 37 23 75 24 79 61 232 67 276 2 16 8 52 14
81 6 29 13 64 15 78 3 14 5 25 7 25 1 0 3 14 4 30 2 17 4 30 5 30 2 0 5 15 12
50 9 40 37 94 55 103 23 12 43 9 98 -18 57 -28 89 -21 132 28 18 20 33 41 33
46 0 4 7 6 15 2 8 -3 15 -1 15 4 0 26 69 -25 177 -130z"/>
</g>
</svg>
